<svg width="377" height="140" viewBox="0 0 377 140" fill="none" xmlns="http://www.w3.org/2000/svg">
<path d="M211.87 33.5596L202.15 76.0396H185.59L180.67 51.9196L175.75 76.0396H159.19L149.47 33.5596H163.81L167.65 60.3195L173.41 33.5596H187.93L193.69 60.3195L197.53 33.5596H211.87ZM243.886 69.6196H229.726L227.626 76.0396H213.646L229.186 33.5596H244.546L260.026 76.0396H245.986L243.886 69.6196ZM240.646 59.5995L236.806 47.7795L232.966 59.5995H240.646ZM279.673 76.4596C274.593 76.4596 270.393 75.2796 267.073 72.9196C263.793 70.5196 262.013 67.0196 261.733 62.4196H275.893C276.093 64.8596 277.173 66.0796 279.133 66.0796C279.853 66.0796 280.453 65.9196 280.933 65.5996C281.453 65.2396 281.713 64.6996 281.713 63.9796C281.713 62.9796 281.173 62.1796 280.093 61.5796C279.013 60.9396 277.333 60.2196 275.053 59.4196C272.333 58.4595 270.073 57.5195 268.273 56.5996C266.513 55.6796 264.993 54.3396 263.713 52.5795C262.433 50.8195 261.813 48.5595 261.853 45.7996C261.853 43.0396 262.553 40.6995 263.953 38.7795C265.393 36.8195 267.333 35.3395 269.773 34.3395C272.253 33.3395 275.033 32.8395 278.113 32.8395C283.313 32.8395 287.433 34.0395 290.473 36.4395C293.553 38.8395 295.173 42.2195 295.333 46.5795H280.993C280.953 45.3795 280.653 44.5195 280.093 43.9995C279.533 43.4795 278.853 43.2195 278.053 43.2195C277.493 43.2195 277.033 43.4195 276.673 43.8196C276.313 44.1796 276.133 44.6996 276.133 45.3795C276.133 46.3395 276.653 47.1395 277.693 47.7795C278.773 48.3795 280.473 49.1195 282.793 49.9995C285.473 50.9996 287.673 51.9596 289.393 52.8796C291.153 53.7996 292.673 55.0796 293.953 56.7195C295.233 58.3595 295.873 60.4195 295.873 62.8996C295.873 65.4995 295.233 67.8396 293.953 69.9196C292.673 71.9596 290.813 73.5596 288.373 74.7196C285.933 75.8796 283.033 76.4596 279.673 76.4596ZM333.913 33.5596V44.1196H322.633V76.0396H309.313V44.1196H298.153V33.5596H333.913ZM350.845 44.1795V49.3995H364.045V59.4196H350.845V65.4196H365.845V76.0396H337.525V33.5596H365.845V44.1795H350.845Z" fill="#32854D"/>
<path d="M224.041 102.68C224.041 105.36 223.421 107.8 222.181 110C220.941 112.16 219.101 113.88 216.661 115.16C214.261 116.44 211.341 117.08 207.901 117.08H202.621V130.58H189.301V88.0996H207.901C213.101 88.0996 217.081 89.4196 219.841 92.0596C222.641 94.6996 224.041 98.2396 224.041 102.68ZM206.401 106.58C209.161 106.58 210.541 105.28 210.541 102.68C210.541 100.08 209.161 98.7796 206.401 98.7796H202.621V106.58H206.401ZM248.966 131C244.966 131 241.286 130.06 237.926 128.18C234.606 126.3 231.966 123.7 230.006 120.38C228.046 117.06 227.066 113.32 227.066 109.16C227.066 105 228.046 101.26 230.006 97.9396C231.966 94.6196 234.606 92.0396 237.926 90.1996C241.286 88.3196 244.966 87.3796 248.966 87.3796C252.966 87.3796 256.626 88.3196 259.946 90.1996C263.266 92.0396 265.886 94.6196 267.806 97.9396C269.766 101.26 270.746 105 270.746 109.16C270.746 113.32 269.766 117.06 267.806 120.38C265.886 123.7 263.246 126.3 259.886 128.18C256.566 130.06 252.926 131 248.966 131ZM248.966 118.58C251.606 118.58 253.646 117.74 255.086 116.06C256.526 114.34 257.246 112.04 257.246 109.16C257.246 106.24 256.526 103.94 255.086 102.26C253.646 100.54 251.606 99.6796 248.966 99.6796C246.286 99.6796 244.226 100.54 242.786 102.26C241.346 103.94 240.626 106.24 240.626 109.16C240.626 112.04 241.346 114.34 242.786 116.06C244.226 117.74 246.286 118.58 248.966 118.58ZM288.871 88.0996V130.58H275.551V88.0996H288.871ZM335.627 130.58H322.307L308.207 109.22V130.58H294.887V88.0996H308.207L322.307 109.82V88.0996H335.627V130.58ZM375.005 88.0996V98.6596H363.725V130.58H350.405V98.6596H339.245V88.0996H375.005Z" fill="#79BA2B"/>
<path d="M98.3609 25.9097L6.21094 35.4997L29.2809 134C29.6962 135.907 30.8 137.593 32.3812 138.737C33.9624 139.881 35.9099 140.402 37.8509 140.2L89.0009 134.91C90.9411 134.708 92.7392 133.8 94.0524 132.358C95.3655 130.915 96.1019 129.04 96.1209 127.09L98.3609 25.9097Z" fill="#F4C159"/>
<g opacity="0.5">
<g style="mix-blend-mode:multiply" opacity="0.5">
<path d="M52.8805 120.08C52.5034 120.118 52.126 120.011 51.825 119.78C51.524 119.55 51.3222 119.214 51.2605 118.84L39.1605 45.9197C39.0955 45.5218 39.1912 45.1145 39.4266 44.7873C39.662 44.46 40.0177 44.2396 40.4155 44.1747C40.8133 44.1097 41.2207 44.2054 41.5479 44.4408C41.8752 44.6761 42.0955 45.0318 42.1605 45.4297L54.2605 118.35C54.2918 118.545 54.2839 118.746 54.2373 118.938C54.1908 119.131 54.1065 119.313 53.9893 119.473C53.8721 119.632 53.7244 119.768 53.5547 119.87C53.385 119.973 53.1966 120.04 53.0005 120.07L52.8805 120.08Z" fill="#F4C159"/>
</g>
</g>
<g style="mix-blend-mode:multiply" opacity="0.5">
<path d="M68.9991 118.4H68.9091C68.5195 118.414 68.1398 118.275 67.8504 118.014C67.5611 117.753 67.3849 117.389 67.3591 117L64.1791 43.1299C64.1706 42.9329 64.201 42.7362 64.2685 42.5509C64.3359 42.3657 64.4393 42.1955 64.5725 42.0502C64.7058 41.9049 64.8663 41.7872 65.0451 41.7039C65.2238 41.6207 65.4172 41.5734 65.6141 41.5649C65.8111 41.5563 66.0079 41.5867 66.1931 41.6542C66.3784 41.7217 66.5485 41.825 66.6938 41.9583C66.8392 42.0915 66.9568 42.2521 67.0401 42.4308C67.1234 42.6095 67.1706 42.8029 67.1791 42.9999L70.3591 116.85C70.376 117.234 70.244 117.609 69.9906 117.898C69.7372 118.187 69.382 118.367 68.9991 118.4V118.4Z" fill="#F4C159"/>
</g>
<g style="mix-blend-mode:multiply">
<g style="mix-blend-mode:multiply" opacity="0.5">
<path d="M85.9 116.65H85.75C85.3539 116.65 84.9739 116.493 84.6929 116.214C84.4118 115.935 84.2526 115.556 84.25 115.16L84 41C84 40.6022 84.158 40.2206 84.4393 39.9393C84.7206 39.658 85.1022 39.5 85.5 39.5C85.8978 39.5 86.2794 39.658 86.5607 39.9393C86.842 40.2206 87 40.6022 87 41L87.27 115.15C87.2691 115.526 87.1283 115.887 86.875 116.165C86.6216 116.442 86.274 116.615 85.9 116.65V116.65Z" fill="#F4C159"/>
</g>
</g>
<g opacity="0.5">
<g style="mix-blend-mode:multiply" opacity="0.5">
<path d="M35.9998 121.84C35.6314 121.88 35.2613 121.781 34.9618 121.563C34.6622 121.345 34.4547 121.023 34.3798 120.66L19.3498 47.9999C19.2983 47.6235 19.3915 47.2416 19.6105 46.9313C19.8296 46.621 20.1583 46.4053 20.5302 46.3279C20.9021 46.2505 21.2895 46.317 21.6143 46.5141C21.939 46.7112 22.1769 47.0242 22.2798 47.3899L37.2798 120.01C37.3207 120.202 37.3232 120.401 37.2869 120.594C37.2507 120.788 37.1765 120.972 37.0686 121.137C36.9608 121.301 36.8214 121.443 36.6586 121.553C36.4957 121.664 36.3126 121.741 36.1198 121.78L35.9998 121.84Z" fill="#F4C159"/>
</g>
</g>
<path d="M66.3798 27.0898L41.9998 29.6298C41.4072 29.6914 40.8143 29.5154 40.3513 29.1405C39.8882 28.7655 39.5928 28.2223 39.5298 27.6298L37.1498 4.99979C37.1179 4.70612 37.1445 4.40905 37.2279 4.12568C37.3113 3.8423 37.45 3.57823 37.6359 3.34866C37.8217 3.11909 38.0512 2.92855 38.311 2.78801C38.5708 2.64748 38.8559 2.55972 39.1498 2.52979L63.5598 -0.000208423C64.1481 -0.0560922 64.7346 0.122747 65.1916 0.497354C65.6486 0.871961 65.9391 1.41198 65.9998 1.99979L68.3498 24.6098C68.4173 25.1999 68.2477 25.7926 67.8783 26.2577C67.5088 26.7227 66.9698 27.0221 66.3798 27.0898V27.0898ZM43.7298 24.9298L63.7298 22.8598L61.7898 4.69979L41.8398 6.77979L43.7298 24.9298Z" fill="#33854E"/>
<path d="M81.42 9.52002L19.41 15.97L16.25 24.97L86.37 17.67L81.42 9.52002Z" fill="#33854E"/>
<path d="M99.66 14.2L2.53 24.31C1.93986 24.3539 1.38509 24.6082 0.966643 25.0266C0.548198 25.4451 0.293891 25.9998 0.25 26.59L0 33.51C0.00326936 33.8537 0.0803153 34.1926 0.225925 34.5039C0.371536 34.8153 0.582313 35.0917 0.843998 35.3145C1.10568 35.5373 1.41217 35.7013 1.74273 35.7954C2.07329 35.8895 2.4202 35.9115 2.76 35.86L101.81 25.55C102.15 25.5253 102.482 25.4285 102.782 25.2662C103.082 25.1039 103.344 24.8796 103.551 24.6083C103.759 24.3369 103.906 24.0247 103.983 23.6923C104.06 23.3599 104.066 23.0148 104 22.68L102.35 16C102.197 15.4242 101.84 14.9238 101.345 14.5925C100.849 14.2612 100.251 14.1217 99.66 14.2V14.2Z" fill="#33854E"/>
<path d="M90.1302 78.1098C90.7996 84.5485 89.5447 91.041 86.5242 96.7664C83.5036 102.492 78.8532 107.193 73.1608 110.275C67.4685 113.358 60.9899 114.683 54.5444 114.084C48.0989 113.484 41.9759 110.987 36.9497 106.907C31.9235 102.828 28.2199 97.3497 26.3071 91.1654C24.3944 84.9811 24.3584 78.3685 26.2038 72.1637C28.0492 65.959 31.6931 60.4408 36.6746 56.307C41.6562 52.1732 47.7516 49.6094 54.1902 48.9398C62.8239 48.0446 71.4596 50.6145 78.1991 56.0845C84.9385 61.5544 89.2301 69.4767 90.1302 78.1098V78.1098Z" fill="#79BA2B"/>
<path d="M54.07 90.29L54.8 97.29L39 98.9L42.41 91.5L54.07 90.29Z" fill="#F9FBFC"/>
<path d="M42.4494 91.5L39.0394 98.9L34.3594 92.34L42.4494 91.5Z" fill="#F9FBFC"/>
<path d="M43.8305 88.49L42.4505 91.49L34.3605 92.33C35.5205 89.83 36.7005 87.24 37.4705 85.57C35.6605 84.72 34.3105 84.11 34.3105 84.11L45.7005 76L47.0005 89.94L43.8305 88.49Z" fill="#DCE8EF"/>
<path d="M67.4297 78.5797L73.0497 74.3896L82.5097 87.0996L74.4097 87.9496L67.4297 78.5797Z" fill="#F9FBFC"/>
<path d="M74.4102 87.9496L82.5102 87.0996L79.2602 94.4696L74.4102 87.9496Z" fill="#F9FBFC"/>
<path d="M71.1092 88.2996L74.4092 87.9496L79.2592 94.4796L71.8492 95.2696C72.0592 97.2696 72.2092 98.7296 72.2092 98.7296L59.4492 93.0496L70.7492 84.8296C70.7492 84.8296 70.8992 86.3096 71.1092 88.2996Z" fill="#DCE8EF"/>
<path d="M51.39 73.05L45 70.13L51.59 55.73L56.23 62.42L51.39 73.05Z" fill="#F9FBFC"/>
<path d="M56.2491 62.4198L51.6191 55.7298L59.6391 55.0298L56.2491 62.4198Z" fill="#F9FBFC"/>
<path d="M58.1395 65.15L56.2495 62.42L59.6395 55L63.8895 61.12L66.7495 59.12L67.8995 73.04L55.2695 67.04L58.1395 65.15Z" fill="#DCE8EF"/>
</svg>
