<svg width="56" height="57" viewBox="0 0 56 57" fill="none" xmlns="http://www.w3.org/2000/svg">
<circle cx="28" cy="28.3452" r="28" fill="#31B380"/>
<path d="M27.864 36.5852C26.712 36.5852 25.608 36.4172 24.552 36.0812C23.512 35.7292 22.648 35.2572 21.96 34.6652L22.968 32.3132C24.408 33.4332 26.008 33.9932 27.768 33.9932C29.928 33.9932 31.008 33.1452 31.008 31.4492C31.008 30.6492 30.736 30.0572 30.192 29.6732C29.664 29.2732 28.888 29.0732 27.864 29.0732H25.152V26.5292H27.576C28.472 26.5292 29.184 26.3132 29.712 25.8812C30.24 25.4332 30.504 24.8172 30.504 24.0332C30.504 23.2972 30.256 22.7372 29.76 22.3532C29.28 21.9692 28.576 21.7772 27.648 21.7772C25.984 21.7772 24.52 22.3532 23.256 23.5052L22.248 21.2012C22.92 20.5612 23.76 20.0652 24.768 19.7132C25.776 19.3612 26.824 19.1852 27.912 19.1852C29.672 19.1852 31.04 19.5852 32.016 20.3852C32.992 21.1692 33.48 22.2652 33.48 23.6732C33.48 24.5852 33.248 25.3852 32.784 26.0732C32.32 26.7612 31.688 27.2572 30.888 27.5612C31.864 27.8332 32.624 28.3372 33.168 29.0732C33.712 29.7932 33.984 30.6732 33.984 31.7132C33.984 33.2172 33.44 34.4092 32.352 35.2892C31.264 36.1532 29.768 36.5852 27.864 36.5852Z" fill="white"/>
</svg>
