<svg width="56" height="57" viewBox="0 0 56 57" fill="none" xmlns="http://www.w3.org/2000/svg">
<circle cx="28" cy="28.3452" r="28" fill="#31B380"/>
<path d="M22.92 36.3452V34.0652L28.392 28.2332C29.128 27.4332 29.656 26.7292 29.976 26.1212C30.296 25.4972 30.456 24.8652 30.456 24.2252C30.456 22.5932 29.472 21.7772 27.504 21.7772C25.968 21.7772 24.552 22.3532 23.256 23.5052L22.224 21.2012C22.896 20.5932 23.736 20.1052 24.744 19.7372C25.752 19.3692 26.8 19.1852 27.888 19.1852C29.696 19.1852 31.08 19.5932 32.04 20.4092C33.016 21.2252 33.504 22.3932 33.504 23.9132C33.504 24.9372 33.256 25.9212 32.76 26.8652C32.28 27.8092 31.52 28.8252 30.48 29.9132L26.76 33.8012H34.152V36.3452H22.92Z" fill="white"/>
</svg>
