<svg width="56" height="57" viewBox="0 0 56 57" fill="none" xmlns="http://www.w3.org/2000/svg">
<circle cx="28" cy="28.3452" r="28" fill="#31B380"/>
<path d="M28.344 36.5852C27.24 36.5852 26.168 36.4172 25.128 36.0812C24.088 35.7292 23.24 35.2572 22.584 34.6652L23.592 32.3132C25.048 33.4332 26.616 33.9932 28.296 33.9932C29.304 33.9932 30.088 33.7372 30.648 33.2252C31.224 32.6972 31.512 31.9932 31.512 31.1132C31.512 30.2172 31.24 29.4972 30.696 28.9532C30.152 28.3932 29.408 28.1132 28.464 28.1132C27.12 28.1132 26.008 28.6492 25.128 29.7212H23.064V19.4252H33.456V21.9692H26.064V26.5532C26.912 25.9132 27.952 25.5932 29.184 25.5932C30.256 25.5932 31.184 25.8252 31.968 26.2892C32.768 26.7372 33.384 27.3692 33.816 28.1852C34.264 28.9852 34.488 29.9212 34.488 30.9932C34.488 32.0972 34.24 33.0732 33.744 33.9212C33.248 34.7532 32.536 35.4092 31.608 35.8892C30.696 36.3532 29.608 36.5852 28.344 36.5852Z" fill="white"/>
</svg>
