<svg width="251" height="219" viewBox="0 0 251 219" fill="none" xmlns="http://www.w3.org/2000/svg">
<path d="M203.926 37.6022L203.808 37.5433L175.781 21.4124L175.612 21.3315C162.518 14.7144 145.049 16.7069 126.256 28.8529C88.5095 53.2626 59.7473 109.449 62.0118 154.35C63.1367 176.723 71.7683 192.067 84.8039 198.816L84.9142 198.875L112.949 215.013L113.081 215.087C126.175 221.704 143.659 219.741 162.466 207.58C200.213 183.171 228.975 126.984 226.711 82.0836C225.601 59.6958 216.969 44.3516 203.926 37.6022Z" fill="#37474F"/>
<path d="M111.984 214.491L84.9492 198.86L84.8169 198.779C71.7812 192.015 63.157 176.671 62.0247 154.327C61.0174 134.3 66.1861 112.044 75.5529 91.3767L75.7368 90.9209L103.587 107.508C94.2058 128.175 89.0518 150.431 90.0591 170.458C91.1251 192.361 99.4112 207.521 111.984 214.491Z" fill="#263238"/>
<path d="M162.481 207.566C200.227 183.156 228.99 126.97 226.725 82.0692C224.46 37.1686 192.022 20.5671 154.275 44.9768C116.529 69.3864 87.7589 125.573 90.0235 170.466C92.288 215.359 124.734 231.975 162.481 207.566Z" fill="#455A64"/>
<path d="M194.447 34.1191L147.135 131.589L136.952 120.56C133.916 117.399 129.761 115.555 125.38 115.423C120.998 115.292 116.74 116.884 113.52 119.858C110.3 122.832 108.374 126.95 108.157 131.327C107.94 135.705 109.449 139.994 112.359 143.272L139.187 172.335C142.137 175.54 146.226 177.462 150.576 177.688C150.885 177.688 151.193 177.688 151.502 177.688C152.314 177.687 153.125 177.628 153.929 177.511C156.629 177.118 159.192 176.07 161.394 174.457C163.596 172.845 165.37 170.718 166.56 168.262L220.82 56.5069C215.254 44.0962 205.99 36.4057 194.447 34.1191Z" fill="#37474F"/>
<path d="M232.872 2.0182C232.578 1.8491 232.269 1.68735 231.96 1.54031C228.492 -0.140049 224.5 -0.376229 220.858 0.883591C217.216 2.14341 214.223 4.79634 212.535 8.26032L152.334 132.264L148.908 128.588C147.919 127.508 146.768 126.588 145.497 125.861C143.703 124.831 136.071 120.412 134.836 119.699C131.825 117.958 128.29 117.353 124.871 117.996C121.453 118.638 118.379 120.485 116.206 123.202C114.033 125.918 112.907 129.323 113.031 132.799C113.155 136.275 114.521 139.591 116.882 142.146L143.71 171.202C144.716 172.294 145.884 173.224 147.173 173.959C148.923 174.952 156.525 179.363 157.775 180.084C159.504 181.085 161.421 181.719 163.405 181.946C165.39 182.174 167.401 181.989 169.311 181.405C171.221 180.821 172.991 179.849 174.509 178.55C176.027 177.251 177.261 175.653 178.134 173.856L249.356 27.1558C250.957 23.8494 251.249 20.0599 250.173 16.5473C249.097 13.0346 246.733 10.0587 243.555 8.2162L232.872 2.0182Z" fill="#32854D"/>
<path opacity="0.15" d="M232.872 2.0182C232.578 1.8491 232.269 1.68735 231.96 1.54031C228.492 -0.140049 224.5 -0.376229 220.858 0.883591C217.216 2.14341 214.223 4.79634 212.535 8.26032L152.334 132.264L148.908 128.588C147.919 127.508 146.768 126.588 145.497 125.861C143.703 124.831 136.071 120.412 134.836 119.699C131.825 117.958 128.29 117.353 124.871 117.996C121.453 118.638 118.379 120.485 116.206 123.202C114.033 125.918 112.907 129.323 113.031 132.799C113.155 136.275 114.521 139.591 116.882 142.146L143.71 171.202C144.716 172.294 145.884 173.224 147.173 173.959C148.923 174.952 156.525 179.363 157.775 180.084C159.504 181.085 161.421 181.719 163.405 181.946C165.39 182.174 167.401 181.989 169.311 181.405C171.221 180.821 172.991 179.849 174.509 178.55C176.027 177.251 177.261 175.653 178.134 173.856L249.356 27.1558C250.957 23.8494 251.249 20.0599 250.173 16.5473C249.097 13.0346 246.733 10.0587 243.555 8.2162L232.872 2.0182Z" fill="black"/>
<path opacity="0.15" d="M157.738 180.054C156.503 179.319 148.915 174.908 147.143 173.93C145.855 173.194 144.687 172.264 143.68 171.173L116.852 142.116C115.669 140.826 114.73 139.331 114.08 137.705L124.748 143.859C125.395 145.49 126.34 146.986 127.535 148.27L154.356 177.327C155.343 178.397 156.483 179.317 157.738 180.054Z" fill="black"/>
<path opacity="0.15" d="M226.578 9.95127C225.176 11.209 224.032 12.7273 223.21 14.4215L161.289 141.969L152.334 132.264L212.535 8.26025C213.355 6.563 214.502 5.04401 215.909 3.79004L226.578 9.95127Z" fill="black"/>
<path d="M242.635 7.70141C239.166 6.02506 235.175 5.79098 231.535 7.05042C227.894 8.30985 224.901 10.9602 223.21 14.4214L161.289 141.969L148.915 128.559C146.267 125.869 142.676 124.315 138.902 124.226C135.128 124.138 131.468 125.522 128.697 128.085C125.926 130.648 124.261 134.188 124.055 137.957C123.849 141.727 125.118 145.428 127.593 148.278L154.414 177.341C156.02 179.078 158.025 180.397 160.256 181.184C162.487 181.97 164.876 182.2 167.216 181.854C169.556 181.507 171.776 180.595 173.684 179.196C175.591 177.798 177.128 175.954 178.162 173.827L249.384 27.1262C251.062 23.6549 251.294 19.6594 250.029 16.0172C248.763 12.3751 246.104 9.38415 242.635 7.70141Z" fill="#32854D"/>
<path d="M28.2363 56.9645C13.1918 56.9645 0.995934 46.2828 0.995934 33.1063C0.995934 19.9297 13.1918 9.24805 28.2363 9.24805C43.2807 9.24805 55.4766 19.9297 55.4766 33.1063C55.4766 46.2828 43.2807 56.9645 28.2363 56.9645Z" fill="#31B380"/>
<path d="M49.9784 46.9062C50.1328 50.1045 52.8384 55.8246 57.7277 57.9347C57.793 57.9625 57.848 58.0101 57.8847 58.0708C57.9215 58.1316 57.9382 58.2023 57.9325 58.2731C57.9268 58.3439 57.899 58.411 57.853 58.4651C57.807 58.5192 57.7452 58.5574 57.6762 58.5744C54.8813 59.1938 51.9663 58.9839 49.2889 57.9704C46.6115 56.9569 44.2882 55.1839 42.604 52.869L49.9784 46.9062Z" fill="#31B380"/>
<path d="M26.3004 31.2163C26.239 30.1707 25.9899 29.1446 25.5652 28.1871C25.1649 27.2504 24.5682 26.4104 23.8154 25.7241C23.02 24.9963 22.0912 24.4296 21.0803 24.0551C18.6559 23.2316 16.0274 23.2316 13.603 24.0551C12.5824 24.4279 11.6437 24.9946 10.8385 25.7241C10.089 26.4245 9.49741 27.2767 9.10338 28.2239C8.67866 29.1814 8.42962 30.2074 8.36815 31.2531C8.33139 32.0765 8.3167 32.9367 8.3167 33.8337C8.3167 34.7307 8.31668 35.5762 8.36815 36.3556C8.42962 37.4012 8.67866 38.4272 9.10338 39.3847C9.5081 40.3233 10.1041 41.1671 10.8532 41.8624C11.6532 42.5989 12.5934 43.1666 13.6177 43.5314C16.0454 44.3351 18.6674 44.3351 21.095 43.5314C22.1152 43.1672 23.0508 42.5994 23.8448 41.8624C24.5964 41.1693 25.1928 40.3249 25.5946 39.3847C26.0193 38.4272 26.2684 37.4012 26.3299 36.3556C26.3666 35.5762 26.3887 34.7307 26.3887 33.8337C26.3887 32.9367 26.3372 32.0398 26.3004 31.2163ZM13.728 36.1791C13.728 35.8335 13.6912 35.4439 13.6692 35.0321C13.6471 34.6204 13.6692 34.1793 13.6692 33.7381C13.6692 33.297 13.6692 32.8706 13.6692 32.4588C13.6692 32.0471 13.7133 31.7236 13.728 31.356C13.7596 30.9043 13.8613 30.4603 14.0294 30.0399C14.1877 29.6471 14.4227 29.2897 14.7206 28.9885C15.0348 28.6805 15.4106 28.4425 15.8234 28.2901C16.8267 27.9472 17.9154 27.9472 18.9187 28.2901C19.3329 28.4441 19.7108 28.6819 20.0289 28.9885C20.3246 29.2899 20.5571 29.6474 20.7127 30.0399C20.8808 30.4603 20.9825 30.9043 21.0141 31.356C21.0594 31.7219 21.084 32.0901 21.0877 32.4588C21.0877 32.8706 21.0877 33.297 21.0877 33.7381C21.0877 34.1793 21.0877 34.6057 21.0877 35.0321C21.0839 35.4155 21.0593 35.7984 21.0141 36.1791C20.9696 37.0629 20.6216 37.9042 20.0289 38.5612C19.6766 38.8945 19.2584 39.1504 18.8014 39.3125C18.3443 39.4746 17.8583 39.5392 17.3747 39.5023C16.8933 39.5408 16.4091 39.4769 15.9541 39.3146C15.4992 39.1524 15.0838 38.8957 14.7353 38.5612C14.1478 37.8989 13.7939 37.062 13.728 36.1791Z" fill="#FAFAFA"/>
<path d="M46.6526 42.8617C46.7136 42.9553 46.7421 43.0665 46.7335 43.1779C46.7345 43.2601 46.7188 43.3416 46.6872 43.4174C46.6555 43.4933 46.6087 43.5619 46.5497 43.619C46.4929 43.6791 46.4245 43.727 46.3487 43.7599C46.2729 43.7927 46.1912 43.8099 46.1085 43.8102H41.506C41.2727 43.8187 41.0423 43.7573 40.8443 43.6337C40.653 43.4943 40.4801 43.3312 40.3296 43.1485L34.8889 36.3108V43.0235C34.8858 43.2217 34.8086 43.4116 34.6725 43.5558C34.5365 43.7001 34.3514 43.7882 34.1537 43.8028H30.3893C30.2872 43.8035 30.1862 43.783 30.0925 43.7425C29.9988 43.7019 29.9146 43.6424 29.8452 43.5676C29.7717 43.4975 29.7135 43.413 29.6743 43.3194C29.6351 43.2257 29.6157 43.125 29.6173 43.0235V24.503C29.6157 24.4015 29.6351 24.3008 29.6743 24.2071C29.7135 24.1135 29.7717 24.029 29.8452 23.9589C29.9146 23.8841 29.9988 23.8246 30.0925 23.784C30.1862 23.7435 30.2872 23.723 30.3893 23.7237H34.1537C34.3514 23.7383 34.5365 23.8264 34.6725 23.9706C34.8086 24.1149 34.8858 24.3048 34.8889 24.503V30.554L39.9399 24.356C40.0557 24.2175 40.1784 24.085 40.3075 23.9589C40.5264 23.7812 40.8063 23.6967 41.0869 23.7237H45.5571C45.641 23.723 45.7241 23.7396 45.8013 23.7725C45.8784 23.8054 45.948 23.8539 46.0056 23.9148C46.0647 23.9719 46.1115 24.0405 46.1431 24.1164C46.1747 24.1923 46.1904 24.2738 46.1894 24.356C46.197 24.4683 46.1659 24.5799 46.1012 24.6721L39.043 33.3699L46.6526 42.8617Z" fill="#FAFAFA"/>
</svg>
