<svg width="428" height="403" viewBox="0 0 428 403" fill="none" xmlns="http://www.w3.org/2000/svg">
<path d="M412.366 297.3C409.217 290.005 404.394 284.333 402.073 276.382C397.088 259.348 405.211 238.742 400.801 221.366C398.147 210.912 391.255 203.808 383.98 201.184C376.704 198.56 369.045 199.862 361.709 202.062C343.374 207.572 323.767 218.5 306.774 206.825C287.288 193.424 280.406 156.37 264.341 135.179C258.761 127.813 251.102 124.079 243.695 125.189C225.945 127.782 213.957 154.907 196.712 161.678C178.245 168.913 158.689 151.203 140.011 157.046C126.822 161.173 116.378 176.532 109.183 193.545C101.988 210.558 97.2755 229.661 90.6357 247.179C83.9958 264.696 74.7929 281.276 62.1489 288.239C45.1356 297.593 23.6519 288.794 9.97869 306.594C3.64157 314.859 0.452837 327.603 0.0491989 340.167C-0.354439 352.73 1.77475 365.172 4.63049 376.999H408.39C411.73 365.667 414.878 345.363 416.261 333.153C417.643 320.943 416.856 307.724 412.366 297.3Z" fill="#D7E5E6"/>
<path d="M412.84 266.725C413.097 269.526 413.645 272.292 414.475 274.979C415.322 277.401 416.604 279.258 418.016 279.399C419.601 279.551 421.044 277.583 422.275 275.433C424.193 272.05 425.556 268.381 426.311 264.565C427.176 259.542 427.464 254.437 427.169 249.348C426.765 238.571 422.557 220.206 416.069 227.582C410.63 233.778 411.649 256.493 412.84 266.725Z" fill="#D7E5E6"/>
<path d="M413.617 203.293C411.8 205.311 408.167 202.607 405.493 197.239C402.819 191.87 402.133 185.896 403.949 183.878C405.766 181.86 409.399 184.575 412.073 189.933C414.747 195.291 415.433 201.275 413.617 203.293Z" fill="#D7E5E6"/>
<path d="M90.5853 222.97C88.8093 225.796 86.6801 228.359 84.1473 229.146C81.6145 229.933 78.6074 228.42 77.5175 224.898C77.1343 223.484 76.9509 222.023 76.9726 220.559C76.9208 215.478 77.9083 210.44 79.8743 205.755C81.8404 201.069 84.7437 196.835 88.4057 193.313C90.8679 191.053 93.7842 189.277 96.5995 190.286C98.6177 191.002 100.767 199.045 98.8397 204.474C96.4785 211.093 94.0869 217.43 90.5853 222.97Z" fill="#D7E5E6"/>
<path d="M146.459 143.111C146.499 144.186 146.217 145.249 145.648 146.163C145.08 147.077 144.252 147.8 143.27 148.24C142.287 148.68 141.196 148.816 140.136 148.631C139.076 148.446 138.095 147.949 137.32 147.202C136.544 146.456 136.01 145.495 135.785 144.442C135.559 143.39 135.654 142.294 136.056 141.296C136.458 140.298 137.149 139.442 138.041 138.84C138.932 138.237 139.984 137.915 141.06 137.914C142.464 137.89 143.821 138.423 144.833 139.397C145.845 140.371 146.429 141.707 146.459 143.111Z" fill="#D7E5E6"/>
<path d="M163.825 145.633C163.958 146.414 163.847 147.217 163.508 147.932C163.169 148.648 162.619 149.243 161.931 149.635C161.244 150.028 160.452 150.2 159.663 150.128C158.875 150.056 158.127 149.744 157.522 149.233C156.917 148.722 156.483 148.038 156.28 147.273C156.076 146.507 156.113 145.698 156.384 144.954C156.656 144.21 157.149 143.568 157.798 143.113C158.446 142.659 159.219 142.415 160.011 142.414C160.942 142.342 161.865 142.639 162.579 143.241C163.293 143.844 163.74 144.703 163.825 145.633Z" fill="#D7E5E6"/>
<path d="M149.87 237.592H42.5625V251.003H149.87V237.592Z" fill="#32854D"/>
<path d="M131.141 368.805H61.2809L53.1577 251.003H139.264L131.141 368.805Z" fill="#32854D"/>
<path d="M75.2876 337.23H93.2596V329.975H78.991L75.2876 337.23Z" fill="#E1D6E6"/>
<path d="M89.8689 323.94L85.9839 308.703L71.3621 314.505L77.5681 317.664L70.353 331.821L75.2875 337.23L83.6731 320.782L89.8689 323.94Z" fill="white"/>
<path d="M107.225 326.705L97.8911 334.909L107.225 343.113V337.614H119.304L121.807 332.195H107.225V326.705Z" fill="white"/>
<path d="M121.807 332.195L116.58 320.359H109.334L114.319 332.195H121.807Z" fill="#E1D6E6"/>
<path d="M84.2783 302.528H91.897L97.6892 294.677L94.8234 288.37L84.2783 302.528Z" fill="#E1D6E6"/>
<path d="M96.0241 306.403L109.162 312.306L113.34 298.511L107.538 301.155L101.12 288.32L94.8232 288.37L101.826 303.759L96.0241 306.403Z" fill="white"/>
<path d="M145.984 251.003H46.4473V258.995H145.984V251.003Z" fill="#79BA2A"/>
<path d="M78.4205 273.636C78.4205 274.557 78.2543 275.352 77.9219 276.023C77.5895 276.693 77.1335 277.21 76.554 277.574C75.9744 277.938 75.3125 278.119 74.5682 278.119C73.8239 278.119 73.1619 277.938 72.5824 277.574C72.0028 277.21 71.5469 276.693 71.2145 276.023C70.8821 275.352 70.7159 274.557 70.7159 273.636C70.7159 272.716 70.8821 271.92 71.2145 271.25C71.5469 270.58 72.0028 270.062 72.5824 269.699C73.1619 269.335 73.8239 269.153 74.5682 269.153C75.3125 269.153 75.9744 269.335 76.554 269.699C77.1335 270.062 77.5895 270.58 77.9219 271.25C78.2543 271.92 78.4205 272.716 78.4205 273.636ZM77.3977 273.636C77.3977 272.881 77.2713 272.243 77.0185 271.723C76.7685 271.203 76.429 270.81 76 270.543C75.5739 270.276 75.0966 270.142 74.5682 270.142C74.0398 270.142 73.5611 270.276 73.1321 270.543C72.706 270.81 72.3665 271.203 72.1136 271.723C71.8636 272.243 71.7386 272.881 71.7386 273.636C71.7386 274.392 71.8636 275.03 72.1136 275.55C72.3665 276.07 72.706 276.463 73.1321 276.73C73.5611 276.997 74.0398 277.131 74.5682 277.131C75.0966 277.131 75.5739 276.997 76 276.73C76.429 276.463 76.7685 276.07 77.0185 275.55C77.2713 275.03 77.3977 274.392 77.3977 273.636ZM80.1974 278V269.273H83.1463C83.8281 269.273 84.3878 269.389 84.8253 269.622C85.2628 269.852 85.5866 270.169 85.7969 270.572C86.0071 270.976 86.1122 271.435 86.1122 271.949C86.1122 272.463 86.0071 272.919 85.7969 273.317C85.5866 273.714 85.2642 274.027 84.8295 274.254C84.3949 274.479 83.8395 274.591 83.1634 274.591H80.777V273.636H83.1293C83.5952 273.636 83.9702 273.568 84.2543 273.432C84.5412 273.295 84.7486 273.102 84.8764 272.852C85.0071 272.599 85.0724 272.298 85.0724 271.949C85.0724 271.599 85.0071 271.294 84.8764 271.033C84.7457 270.771 84.5369 270.57 84.25 270.428C83.9631 270.283 83.5838 270.21 83.1122 270.21H81.2543V278H80.1974ZM84.3054 274.08L86.4531 278H85.2259L83.1122 274.08H84.3054ZM93.8391 272C93.7454 271.713 93.6218 271.456 93.4684 271.229C93.3178 270.999 93.1374 270.803 92.9272 270.641C92.7198 270.479 92.484 270.355 92.2198 270.27C91.9556 270.185 91.6658 270.142 91.3505 270.142C90.8335 270.142 90.3633 270.276 89.94 270.543C89.5167 270.81 89.18 271.203 88.93 271.723C88.68 272.243 88.555 272.881 88.555 273.636C88.555 274.392 88.6815 275.03 88.9343 275.55C89.1871 276.07 89.5295 276.463 89.9613 276.73C90.3931 276.997 90.8789 277.131 91.4187 277.131C91.9187 277.131 92.359 277.024 92.7397 276.811C93.1232 276.595 93.4215 276.291 93.6346 275.899C93.8505 275.504 93.9585 275.04 93.9585 274.506L94.2823 274.574H91.6573V273.636H94.9812V274.574C94.9812 275.293 94.8278 275.918 94.521 276.449C94.217 276.98 93.7965 277.392 93.2596 277.685C92.7255 277.974 92.1119 278.119 91.4187 278.119C90.646 278.119 89.967 277.938 89.3817 277.574C88.7994 277.21 88.3448 276.693 88.0181 276.023C87.6942 275.352 87.5323 274.557 87.5323 273.636C87.5323 272.946 87.6246 272.325 87.8093 271.774C87.9968 271.22 88.261 270.749 88.6019 270.359C88.9428 269.97 89.3462 269.672 89.8121 269.464C90.2781 269.257 90.7908 269.153 91.3505 269.153C91.8107 269.153 92.2397 269.223 92.6374 269.362C93.038 269.499 93.3945 269.693 93.707 269.946C94.0224 270.196 94.2852 270.496 94.4954 270.845C94.7056 271.192 94.8505 271.577 94.93 272H93.8391ZM96.8796 278H95.7717L98.9762 269.273H100.067L103.272 278H102.164L99.5558 270.653H99.4876L96.8796 278ZM97.2887 274.591H101.755V275.528H97.2887V274.591ZM111.551 269.273V278H110.529L105.773 271.148H105.688V278H104.631V269.273H105.654L110.426 276.142H110.512V269.273H111.551ZM114.723 269.273V278H113.666V269.273H114.723ZM123.865 272H122.808C122.745 271.696 122.636 271.429 122.48 271.199C122.326 270.969 122.139 270.776 121.917 270.619C121.699 270.46 121.456 270.341 121.189 270.261C120.922 270.182 120.643 270.142 120.353 270.142C119.825 270.142 119.346 270.276 118.917 270.543C118.491 270.81 118.152 271.203 117.899 271.723C117.649 272.243 117.524 272.881 117.524 273.636C117.524 274.392 117.649 275.03 117.899 275.55C118.152 276.07 118.491 276.463 118.917 276.73C119.346 276.997 119.825 277.131 120.353 277.131C120.643 277.131 120.922 277.091 121.189 277.011C121.456 276.932 121.699 276.814 121.917 276.658C122.139 276.499 122.326 276.304 122.48 276.074C122.636 275.841 122.745 275.574 122.808 275.273H123.865C123.785 275.719 123.64 276.118 123.43 276.47C123.22 276.822 122.958 277.122 122.646 277.369C122.333 277.614 121.983 277.8 121.593 277.928C121.207 278.055 120.794 278.119 120.353 278.119C119.609 278.119 118.947 277.938 118.368 277.574C117.788 277.21 117.332 276.693 117 276.023C116.667 275.352 116.501 274.557 116.501 273.636C116.501 272.716 116.667 271.92 117 271.25C117.332 270.58 117.788 270.062 118.368 269.699C118.947 269.335 119.609 269.153 120.353 269.153C120.794 269.153 121.207 269.217 121.593 269.345C121.983 269.473 122.333 269.661 122.646 269.908C122.958 270.152 123.22 270.45 123.43 270.803C123.64 271.152 123.785 271.551 123.865 272Z" fill="white"/>
<path d="M138.719 258.995H53.7129L54.4193 269.207C69.7171 265.463 116.882 264.474 138.366 264.101L138.719 258.995Z" fill="#32854D"/>
<path d="M273.968 237.592H166.661V251.003H273.968V237.592Z" fill="#5AA9E0"/>
<path d="M255.24 368.805H185.38L177.257 251.003H263.363L255.24 368.805Z" fill="#5AA9E0"/>
<path d="M199.386 337.23H217.358V329.975H203.089L199.386 337.23Z" fill="#E1D6E6"/>
<path d="M213.967 323.94L210.082 308.703L195.461 314.505L201.656 317.664L194.441 331.821L199.386 337.23L207.772 320.782L213.967 323.94Z" fill="white"/>
<path d="M231.314 326.705L221.98 334.909L231.314 343.113V337.614H243.393L245.906 332.195H231.314V326.705Z" fill="white"/>
<path d="M245.905 332.195L240.668 320.359H233.423L238.418 332.195H245.905Z" fill="#E1D6E6"/>
<path d="M208.367 302.527H215.995L221.788 294.677L218.912 288.37L208.367 302.527Z" fill="#E1D6E6"/>
<path d="M220.123 306.403L233.261 312.306L237.429 298.511L231.636 301.155L225.218 288.32L218.912 288.37L225.915 303.759L220.123 306.403Z" fill="white"/>
<path d="M270.073 251.003H170.536V258.995H270.073V251.003Z" fill="#75C7E0"/>
<path d="M200.085 277.741V269.014H203.034C203.719 269.014 204.278 269.138 204.713 269.385C205.15 269.629 205.474 269.96 205.685 270.378C205.895 270.795 206 271.261 206 271.776C206 272.29 205.895 272.757 205.685 273.178C205.477 273.598 205.156 273.933 204.722 274.183C204.287 274.43 203.73 274.554 203.051 274.554H200.937V273.616H203.017C203.486 273.616 203.862 273.535 204.146 273.374C204.43 273.212 204.636 272.993 204.764 272.717C204.895 272.439 204.96 272.125 204.96 271.776C204.96 271.426 204.895 271.114 204.764 270.838C204.636 270.562 204.429 270.347 204.142 270.19C203.855 270.031 203.474 269.952 203 269.952H201.142V277.741H200.085ZM207.17 277.741H206.062L209.266 269.014H210.357L213.562 277.741H212.454L209.846 270.395H209.778L207.17 277.741ZM207.579 274.332H212.045V275.27H207.579V274.332ZM214.921 277.741V269.014H217.87C218.555 269.014 219.114 269.138 219.549 269.385C219.986 269.629 220.31 269.96 220.521 270.378C220.731 270.795 220.836 271.261 220.836 271.776C220.836 272.29 220.731 272.757 220.521 273.178C220.313 273.598 219.992 273.933 219.557 274.183C219.123 274.43 218.566 274.554 217.887 274.554H215.773V273.616H217.853C218.322 273.616 218.698 273.535 218.982 273.374C219.266 273.212 219.472 272.993 219.6 272.717C219.731 272.439 219.796 272.125 219.796 271.776C219.796 271.426 219.731 271.114 219.6 270.838C219.472 270.562 219.265 270.347 218.978 270.19C218.691 270.031 218.31 269.952 217.836 269.952H215.978V277.741H214.921ZM222.538 277.741V269.014H227.805V269.952H223.595V272.901H227.533V273.838H223.595V276.804H227.873V277.741H222.538ZM229.71 277.741V269.014H232.659C233.341 269.014 233.9 269.131 234.338 269.364C234.775 269.594 235.099 269.91 235.31 270.314C235.52 270.717 235.625 271.176 235.625 271.69C235.625 272.205 235.52 272.66 235.31 273.058C235.099 273.456 234.777 273.768 234.342 273.996C233.908 274.22 233.352 274.332 232.676 274.332H230.29V273.378H232.642C233.108 273.378 233.483 273.31 233.767 273.173C234.054 273.037 234.261 272.844 234.389 272.594C234.52 272.341 234.585 272.04 234.585 271.69C234.585 271.341 234.52 271.035 234.389 270.774C234.258 270.513 234.05 270.311 233.763 270.169C233.476 270.024 233.097 269.952 232.625 269.952H230.767V277.741H229.71ZM233.818 273.821L235.966 277.741H234.739L232.625 273.821H233.818Z" fill="white"/>
<path d="M178.558 269.954C189.901 263.899 256.097 259.47 262.808 259.036H177.812L178.558 269.954Z" fill="#5A92E0"/>
<path d="M402.214 237.592H294.907V251.003H402.214V237.592Z" fill="#EEA93C"/>
<path d="M383.485 368.805H313.636L305.513 251.003H391.609L383.485 368.805Z" fill="#EEA93C"/>
<path d="M327.632 337.23H345.604V329.975H331.335L327.632 337.23Z" fill="#E1D6E6"/>
<path d="M342.223 323.94L338.328 308.703L323.706 314.505L329.912 317.664L322.697 331.821L327.632 337.23L336.017 320.782L342.223 323.94Z" fill="white"/>
<path d="M359.57 326.705L350.236 334.909L359.57 343.113V337.614H371.649L374.151 332.195H359.57V326.705Z" fill="white"/>
<path d="M374.151 332.195L368.924 320.359H361.679L366.674 332.195H374.151Z" fill="#E1D6E6"/>
<path d="M336.623 302.528H344.241L350.033 294.677L347.168 288.37L336.623 302.528Z" fill="#E1D6E6"/>
<path d="M348.369 306.403L361.507 312.306L365.685 298.511L359.883 301.155L353.465 288.32L347.168 288.37L354.171 303.759L348.369 306.403Z" fill="white"/>
<path d="M398.329 251.003H298.792V258.995H398.329V251.003Z" fill="#F4C159"/>
<path d="M324.057 278V269.273H327.006C327.69 269.273 328.25 269.396 328.685 269.643C329.122 269.888 329.446 270.219 329.656 270.636C329.866 271.054 329.972 271.52 329.972 272.034C329.972 272.548 329.866 273.016 329.656 273.436C329.449 273.857 329.128 274.192 328.693 274.442C328.259 274.689 327.702 274.812 327.023 274.812H324.909V273.875H326.989C327.457 273.875 327.834 273.794 328.118 273.632C328.402 273.47 328.608 273.251 328.736 272.976C328.866 272.697 328.932 272.384 328.932 272.034C328.932 271.685 328.866 271.372 328.736 271.097C328.608 270.821 328.401 270.605 328.114 270.449C327.827 270.29 327.446 270.21 326.972 270.21H325.114V278H324.057ZM331.674 278V269.273H332.731V277.062H336.788V278H331.674ZM339.333 278H338.225L341.429 269.273H342.52L345.725 278H344.617L342.009 270.653H341.941L339.333 278ZM339.742 274.591H344.208V275.528H339.742V274.591ZM351.857 271.455C351.806 271.023 351.598 270.688 351.235 270.449C350.871 270.21 350.425 270.091 349.897 270.091C349.51 270.091 349.172 270.153 348.882 270.278C348.596 270.403 348.371 270.575 348.209 270.794C348.05 271.013 347.971 271.261 347.971 271.54C347.971 271.773 348.026 271.973 348.137 272.141C348.25 272.305 348.395 272.443 348.571 272.554C348.748 272.662 348.932 272.751 349.125 272.822C349.319 272.891 349.496 272.946 349.658 272.989L350.544 273.227C350.772 273.287 351.025 273.369 351.303 273.474C351.584 273.58 351.853 273.723 352.108 273.905C352.367 274.084 352.58 274.314 352.748 274.595C352.915 274.876 352.999 275.222 352.999 275.631C352.999 276.102 352.875 276.528 352.628 276.909C352.384 277.29 352.026 277.592 351.554 277.817C351.086 278.041 350.516 278.153 349.846 278.153C349.221 278.153 348.679 278.053 348.222 277.851C347.767 277.649 347.409 277.368 347.148 277.007C346.89 276.646 346.743 276.227 346.709 275.75H347.8C347.828 276.08 347.939 276.352 348.132 276.568C348.328 276.781 348.576 276.94 348.874 277.045C349.175 277.148 349.499 277.199 349.846 277.199C350.249 277.199 350.611 277.134 350.932 277.003C351.253 276.869 351.507 276.685 351.695 276.449C351.882 276.21 351.976 275.932 351.976 275.614C351.976 275.324 351.895 275.088 351.733 274.906C351.571 274.724 351.358 274.577 351.094 274.463C350.83 274.349 350.544 274.25 350.238 274.165L349.164 273.858C348.482 273.662 347.942 273.382 347.544 273.018C347.147 272.655 346.948 272.179 346.948 271.591C346.948 271.102 347.08 270.676 347.344 270.312C347.611 269.946 347.969 269.662 348.418 269.46C348.87 269.256 349.374 269.153 349.931 269.153C350.493 269.153 350.993 269.254 351.431 269.456C351.868 269.655 352.215 269.928 352.471 270.274C352.729 270.621 352.865 271.014 352.88 271.455H351.857ZM354.259 270.21V269.273H360.805V270.21H358.06V278H357.004V270.21H354.259ZM363.493 269.273V278H362.436V269.273H363.493ZM372.634 272H371.577C371.515 271.696 371.406 271.429 371.249 271.199C371.096 270.969 370.908 270.776 370.687 270.619C370.468 270.46 370.225 270.341 369.958 270.261C369.691 270.182 369.413 270.142 369.123 270.142C368.594 270.142 368.116 270.276 367.687 270.543C367.261 270.81 366.921 271.203 366.668 271.723C366.418 272.243 366.293 272.881 366.293 273.636C366.293 274.392 366.418 275.03 366.668 275.55C366.921 276.07 367.261 276.463 367.687 276.73C368.116 276.997 368.594 277.131 369.123 277.131C369.413 277.131 369.691 277.091 369.958 277.011C370.225 276.932 370.468 276.814 370.687 276.658C370.908 276.499 371.096 276.304 371.249 276.074C371.406 275.841 371.515 275.574 371.577 275.273H372.634C372.555 275.719 372.41 276.118 372.2 276.47C371.989 276.822 371.728 277.122 371.415 277.369C371.103 277.614 370.752 277.8 370.363 277.928C369.977 278.055 369.563 278.119 369.123 278.119C368.379 278.119 367.717 277.938 367.137 277.574C366.558 277.21 366.102 276.693 365.769 276.023C365.437 275.352 365.271 274.557 365.271 273.636C365.271 272.716 365.437 271.92 365.769 271.25C366.102 270.58 366.558 270.062 367.137 269.699C367.717 269.335 368.379 269.153 369.123 269.153C369.563 269.153 369.977 269.217 370.363 269.345C370.752 269.473 371.103 269.661 371.415 269.908C371.728 270.152 371.989 270.45 372.2 270.803C372.41 271.152 372.555 271.551 372.634 272Z" fill="white"/>
<path d="M306.057 258.995L307.49 279.752C311.97 260.034 391.063 258.995 391.063 258.995H306.057Z" fill="#EEA93C"/>
<path d="M427.31 367.453H0.00878906V377.988H427.31V367.453Z" fill="#B6C6E6"/>
<path d="M157.387 386.242C156.454 386.801 155.702 387.618 155.223 388.595C154.743 389.571 154.556 390.665 154.684 391.745C154.812 392.826 155.249 393.846 155.944 394.683C156.638 395.521 157.56 396.139 158.598 396.465C161.717 397.423 164.953 397.949 168.215 398.029C179.981 398.432 191.565 394.305 203.321 393.478C226.662 391.823 249.588 403.165 272.949 402.882C276.582 402.832 280.426 402.418 283.423 399.673C284.258 398.946 284.919 398.041 285.357 397.025C285.796 396.008 286 394.907 285.956 393.801C285.643 390.228 282.424 388.674 279.74 388.069C269.649 385.808 259.346 386.192 249.104 386.394C231.431 386.757 213.755 386.565 196.076 385.819C187.196 385.445 178.205 385.324 169.345 384.265C165.016 383.78 160.98 384.174 157.387 386.242Z" fill="#DAE2F0"/>
<path d="M244.573 364.98C244.815 364.98 245.068 364.98 245.35 364.89C248.963 364.274 258.63 364.95 262.858 364.94C262.858 366.958 263.07 371.408 263.746 373.487C264.654 376.242 271.375 383.639 273.282 388.109C275.189 392.579 269.871 394.164 269.871 394.164H259.094C253.726 394.275 250.012 389.451 247.691 387.312C245.37 385.172 245.471 379.451 245.603 373.053C245.734 366.656 244.593 364.98 244.593 364.98H244.573Z" fill="#4B455E"/>
<path d="M245.602 373.053C245.734 366.645 244.593 364.98 244.593 364.98C244.835 364.98 245.088 364.98 245.37 364.889C246.707 364.703 248.057 364.619 249.407 364.637C250.143 366.867 252.323 373.719 252.505 377.564C252.656 380.894 249.911 385.556 248.468 388.008C248.219 387.759 247.977 387.527 247.742 387.312C245.34 385.182 245.471 379.451 245.602 373.053Z" fill="#6C6387"/>
<path d="M254.755 388.704C258.428 388.361 260.457 385.616 265.542 387.292C270.628 388.967 272.485 389.703 273.161 387.836C273.161 387.927 273.252 388.018 273.282 388.109C275.189 392.579 269.871 394.163 269.871 394.163H259.094C253.726 394.274 250.012 389.451 247.692 387.312C246.36 386.101 245.825 383.729 245.673 380.732C247.015 382.771 251.657 388.987 254.755 388.704Z" fill="#332C47"/>
<path d="M258.085 364.819C259.942 364.889 261.637 364.94 262.858 364.94C262.858 366.958 263.07 371.408 263.746 373.487C264.201 374.869 266.128 377.422 268.166 380.187C268.171 380.269 268.157 380.35 268.126 380.425C268.094 380.501 268.046 380.568 267.985 380.621C267.836 380.698 267.667 380.73 267.5 380.712C266.562 380.655 265.645 380.409 264.805 379.989C263.964 379.57 263.216 378.985 262.606 378.27C261.52 376.932 260.732 375.376 260.295 373.709C259.832 372.206 259.478 370.672 259.236 369.118C259.193 367.954 258.986 366.802 258.62 365.697C258.464 365.391 258.286 365.098 258.085 364.819Z" fill="#6C6387"/>
<path d="M250.85 377.725C250.757 377.73 250.665 377.702 250.591 377.646C250.517 377.59 250.465 377.51 250.444 377.419C250.424 377.328 250.436 377.233 250.479 377.151C250.522 377.068 250.592 377.004 250.678 376.968C255.401 374.728 262.626 375.909 262.929 375.959C262.981 375.966 263.031 375.984 263.076 376.011C263.121 376.038 263.16 376.074 263.191 376.116C263.222 376.158 263.244 376.206 263.256 376.257C263.268 376.309 263.27 376.361 263.262 376.413C263.253 376.466 263.234 376.516 263.206 376.561C263.178 376.606 263.142 376.645 263.099 376.676C263.055 376.707 263.007 376.729 262.955 376.741C262.903 376.753 262.85 376.755 262.797 376.746C262.727 376.746 255.512 375.555 251.021 377.685C250.968 377.711 250.909 377.725 250.85 377.725Z" fill="#D7E5E6"/>
<path d="M250.264 374.183C250.171 374.188 250.08 374.161 250.006 374.105C249.931 374.048 249.879 373.968 249.859 373.877C249.838 373.787 249.851 373.692 249.893 373.609C249.936 373.527 250.007 373.462 250.093 373.426C254.815 371.186 262.04 372.367 262.343 372.417C262.396 372.426 262.446 372.445 262.491 372.473C262.536 372.501 262.575 372.537 262.606 372.58C262.637 372.624 262.659 372.672 262.671 372.724C262.683 372.776 262.685 372.829 262.676 372.882C262.657 372.985 262.597 373.078 262.51 373.138C262.423 373.198 262.316 373.222 262.212 373.204C262.141 373.204 254.926 372.014 250.436 374.143C250.383 374.17 250.324 374.183 250.264 374.183Z" fill="#D7E5E6"/>
<path d="M249.306 371.671C249.23 371.671 249.157 371.651 249.092 371.612C249.028 371.572 248.976 371.516 248.942 371.449C248.9 371.352 248.896 371.243 248.932 371.143C248.968 371.044 249.04 370.962 249.134 370.914C253.867 368.674 261.082 369.854 261.395 369.905C261.499 369.925 261.591 369.984 261.651 370.071C261.711 370.158 261.735 370.265 261.718 370.369C261.71 370.421 261.693 370.47 261.666 370.515C261.638 370.56 261.603 370.598 261.56 370.628C261.518 370.659 261.469 370.68 261.418 370.691C261.367 370.702 261.315 370.702 261.263 370.692C261.193 370.692 253.978 369.511 249.477 371.641C249.422 371.661 249.364 371.671 249.306 371.671Z" fill="#D7E5E6"/>
<path d="M248.983 368.522C248.907 368.52 248.833 368.498 248.768 368.457C248.704 368.416 248.653 368.358 248.619 368.29C248.596 368.242 248.582 368.191 248.579 368.138C248.576 368.085 248.583 368.032 248.601 367.982C248.619 367.932 248.647 367.886 248.683 367.847C248.719 367.808 248.763 367.777 248.811 367.755C253.534 365.525 260.759 366.746 261.062 366.746C261.114 366.753 261.163 366.771 261.208 366.798C261.254 366.825 261.293 366.861 261.324 366.903C261.355 366.945 261.377 366.993 261.389 367.044C261.401 367.095 261.403 367.148 261.395 367.2C261.386 367.252 261.367 367.303 261.339 367.348C261.311 367.393 261.275 367.432 261.232 367.463C261.188 367.494 261.14 367.516 261.088 367.528C261.036 367.54 260.983 367.542 260.93 367.533C260.86 367.533 253.645 366.342 249.144 368.471C249.094 368.498 249.039 368.515 248.983 368.522Z" fill="#D7E5E6"/>
<path d="M197.499 364.98C197.257 364.98 196.994 364.98 196.712 364.89C193.109 364.274 183.442 364.95 179.204 364.94C179.204 366.958 179.002 371.408 178.316 373.487C177.418 376.242 170.687 383.639 168.78 388.109C166.873 392.579 172.191 394.164 172.191 394.164H182.968C188.336 394.275 192.05 389.451 194.371 387.312C196.692 385.172 196.601 379.451 196.47 373.053C196.339 366.656 197.479 364.98 197.479 364.98H197.499Z" fill="#4B455E"/>
<path d="M196.47 373.053C196.339 366.645 197.479 364.98 197.479 364.98C197.237 364.98 196.975 364.98 196.692 364.89C195.355 364.703 194.006 364.619 192.656 364.637C191.919 366.867 189.739 373.719 189.558 377.564C189.406 380.894 192.151 385.556 193.594 388.008C193.85 387.759 194.092 387.527 194.321 387.312C196.732 385.182 196.601 379.451 196.47 373.053Z" fill="#6C6387"/>
<path d="M187.317 388.704C183.644 388.361 181.606 385.616 176.53 387.292C171.454 388.967 169.577 389.703 168.911 387.836L168.78 388.109C166.873 392.579 172.191 394.163 172.191 394.163H182.968C188.336 394.274 192.05 389.451 194.371 387.312C195.713 386.101 196.248 383.729 196.439 380.732C195.047 382.771 190.415 388.987 187.317 388.704Z" fill="#332C47"/>
<path d="M183.977 364.819C182.12 364.889 180.435 364.94 179.204 364.94C179.204 366.958 179.002 371.408 178.316 373.487C177.862 374.869 175.944 377.422 173.896 380.187C173.891 380.269 173.905 380.35 173.937 380.425C173.968 380.501 174.016 380.568 174.078 380.621C174.23 380.699 174.402 380.73 174.572 380.712C175.508 380.653 176.423 380.407 177.262 379.988C178.101 379.568 178.847 378.984 179.456 378.27C180.543 376.93 181.334 375.376 181.777 373.709C182.228 372.206 182.566 370.671 182.786 369.118C182.827 367.953 183.038 366.801 183.412 365.697C183.577 365.39 183.766 365.096 183.977 364.819Z" fill="#6C6387"/>
<path d="M191.252 377.725C191.196 377.74 191.137 377.74 191.081 377.725C186.58 375.596 179.365 376.777 179.295 376.787C179.243 376.795 179.19 376.794 179.139 376.781C179.088 376.769 179.04 376.747 178.997 376.716C178.955 376.685 178.919 376.646 178.893 376.601C178.866 376.556 178.848 376.506 178.841 376.454C178.832 376.403 178.833 376.35 178.845 376.3C178.856 376.25 178.878 376.202 178.908 376.16C178.938 376.118 178.976 376.082 179.02 376.054C179.064 376.027 179.112 376.008 179.163 376C179.466 375.949 186.701 374.769 191.424 377.009C191.517 377.054 191.589 377.135 191.623 377.234C191.657 377.332 191.651 377.44 191.606 377.533C191.57 377.595 191.518 377.645 191.456 377.679C191.394 377.713 191.323 377.729 191.252 377.725Z" fill="white"/>
<path d="M191.807 374.183C191.751 374.198 191.692 374.198 191.636 374.183C187.135 372.054 179.92 373.234 179.849 373.245C179.798 373.253 179.746 373.252 179.696 373.24C179.645 373.229 179.598 373.207 179.555 373.177C179.513 373.147 179.477 373.109 179.45 373.065C179.422 373.022 179.404 372.973 179.395 372.922C179.378 372.817 179.402 372.71 179.462 372.624C179.522 372.537 179.614 372.477 179.718 372.457C180.021 372.407 187.246 371.226 191.979 373.467C192.026 373.489 192.069 373.521 192.104 373.56C192.139 373.6 192.166 373.646 192.183 373.696C192.2 373.745 192.206 373.798 192.203 373.851C192.199 373.903 192.184 373.954 192.16 374.001C192.124 374.061 192.071 374.109 192.009 374.141C191.947 374.173 191.877 374.188 191.807 374.183Z" fill="white"/>
<path d="M192.757 371.67C192.7 371.68 192.642 371.68 192.585 371.67C188.084 369.531 180.879 370.712 180.809 370.722C180.754 370.74 180.695 370.746 180.637 370.739C180.579 370.733 180.524 370.714 180.474 370.684C180.424 370.654 180.382 370.613 180.349 370.565C180.316 370.517 180.294 370.462 180.285 370.405C180.275 370.347 180.278 370.289 180.293 370.232C180.309 370.176 180.336 370.124 180.373 370.079C180.411 370.035 180.457 369.999 180.51 369.974C180.562 369.949 180.62 369.935 180.678 369.935C180.98 369.884 188.206 368.704 192.928 370.944C193.014 370.979 193.085 371.044 193.128 371.126C193.17 371.209 193.183 371.304 193.162 371.395C193.141 371.485 193.089 371.566 193.015 371.622C192.941 371.678 192.849 371.706 192.757 371.701V371.67Z" fill="white"/>
<path d="M193.089 368.522C193.032 368.533 192.974 368.533 192.917 368.522C188.417 366.393 181.212 367.574 181.131 367.584C181.027 367.598 180.921 367.572 180.836 367.509C180.752 367.447 180.694 367.354 180.677 367.251C180.668 367.2 180.67 367.147 180.681 367.097C180.693 367.046 180.714 366.999 180.744 366.957C180.774 366.914 180.812 366.879 180.856 366.851C180.9 366.824 180.949 366.805 181 366.797C181.313 366.746 188.538 365.565 193.26 367.806C193.342 367.845 193.408 367.911 193.448 367.993C193.488 368.075 193.498 368.168 193.478 368.257C193.459 368.346 193.409 368.425 193.339 368.483C193.268 368.54 193.18 368.572 193.089 368.573V368.522Z" fill="white"/>
<path d="M233.836 291.569C234.209 294.071 234.522 296.776 234.785 299.732C236.339 317.896 244.23 352.074 243.977 357.009C243.725 361.943 240.859 366.09 242.968 367.099C245.077 368.109 253.604 364.768 259.83 366.09C266.056 367.412 264.492 362.458 263.201 359.864C261.909 357.271 259.164 337.079 258.67 329.299C258.175 321.519 254.966 256.099 253.009 246.331C251.051 236.563 250.446 188.812 245.471 182.092C240.496 175.371 214.027 176.552 214.027 176.552L186.893 182.092C186.893 182.092 185.631 253.314 184.521 272.567C183.411 291.821 183.411 345.868 180.485 354.758C177.559 363.648 176.731 364.849 179.476 365.142C182.221 365.434 193.967 364.335 197.983 365.142C201.999 365.949 201.363 362.246 201.01 360.48C200.657 358.714 198.598 356.776 198.76 354.526C198.921 352.276 206.56 305.696 206.56 287.795C206.56 269.893 214.633 207.642 217.973 206.865C221.313 206.088 223.937 244.999 226.53 259.005C228.7 270.731 231.969 278.642 233.886 291.569" fill="#533752"/>
<path d="M195.4 351.267C193.189 353.62 190.512 355.487 187.539 356.746C190.324 357.988 193.594 356.807 196.621 357.503C197.745 357.897 198.904 358.184 200.082 358.361C199.272 357.241 198.809 355.907 198.75 354.526C198.75 354.002 199.224 351.146 199.86 346.837C197.802 347.281 196.712 349.784 195.4 351.267Z" fill="#452F49"/>
<path d="M243.907 357.806C245.071 357.215 246.321 356.81 247.61 356.605C249.063 356.502 250.508 356.317 251.939 356.05C252.1 356.019 252.25 355.946 252.373 355.838C252.467 355.709 252.509 355.549 252.491 355.39C252.472 355.231 252.394 355.085 252.272 354.981C252.02 354.781 251.722 354.649 251.404 354.597C249.714 354.252 248.066 353.724 246.49 353.023C245.481 352.528 244.472 351.55 243.342 351.358C243.702 353.222 243.915 355.111 243.978 357.009C243.957 357.281 243.937 357.544 243.907 357.806Z" fill="#452F49"/>
<path d="M241.859 303.294C242.005 303.155 242.117 302.985 242.187 302.796C242.257 302.607 242.283 302.405 242.263 302.205C242.545 295.524 239.235 289.278 236.208 283.334C235.199 281.316 231.112 271.013 228.448 267.895C230.325 275.403 232.434 282.154 233.837 291.569C234.21 294.071 234.523 296.776 234.785 299.732C234.785 299.964 234.785 300.217 234.846 300.459C236.495 302.123 238.663 303.173 240.991 303.436C241.288 303.492 241.596 303.442 241.859 303.294Z" fill="#452F49"/>
<path d="M216.581 209.448C216.464 209.135 216.294 208.845 216.077 208.591C212.273 204.302 209.881 215.069 209.639 217.34C208.112 231.568 206.813 245.823 205.744 260.105C205.36 265.312 204.997 270.61 206.107 275.716C206.551 274.666 206.975 273.607 207.378 272.537C209.235 251.043 213.655 218.732 216.581 209.448Z" fill="#452F49"/>
<path d="M245.441 182.092C240.466 175.412 213.998 176.552 213.998 176.552L186.863 182.092C186.863 182.092 186.752 188.349 186.561 197.642C187.067 197.752 187.587 197.793 188.104 197.764C193.342 197.572 199.275 195.049 204.452 193.979C209.901 192.843 215.377 191.833 220.88 190.952C229.831 189.55 239.306 188.581 247.984 190.599C247.278 186.532 246.45 183.455 245.441 182.092Z" fill="#452F49"/>
<path d="M140.546 166.825C141.958 167.208 143.432 167.945 144.451 166.895C144.955 166.371 145.298 165.594 146.005 165.412C146.299 165.352 146.604 165.385 146.879 165.506C147.154 165.628 147.384 165.831 147.539 166.088C147.837 166.611 147.95 167.218 147.862 167.814C147.65 170.074 145.914 171.85 144.955 173.868C143.684 176.572 144.047 179.64 144.572 182.577C144.753 183.841 145.12 185.072 145.662 186.23C146.065 186.875 151.999 191.87 153.341 194.988C153.341 194.988 171.051 227.28 163.997 251.498C156.943 275.716 132.049 267.351 126.741 260.529C120.041 251.912 119.91 237.169 128.759 220.418C128.759 220.418 140.98 199.388 140.485 191.154C139.991 182.92 139.002 179.943 134.743 178.298C130.485 176.653 128.103 176.028 128.103 173.434C128.103 170.841 129.95 171.567 131.867 171.941C133.785 172.314 135.329 171.648 136.358 169.438C137.387 167.228 138.659 166.28 140.546 166.825Z" fill="#383A4F"/>
<path d="M164.007 251.477C166.59 242.587 165.843 232.637 163.866 223.576C163.751 226.927 163.294 230.257 162.503 233.515C160.071 243.273 153.22 252.577 143.452 254.979C136.388 256.704 129.092 254.646 122.583 251.265C123.262 254.62 124.686 257.779 126.751 260.509C132.049 267.33 156.943 275.716 164.007 251.477Z" fill="#2D2F40"/>
<path d="M146.368 200.367C146.87 199.868 147.181 199.209 147.247 198.505C147.313 197.801 147.131 197.096 146.732 196.512C147.342 196.284 147.847 195.839 148.151 195.262C148.454 194.685 148.534 194.017 148.377 193.384C148.002 192.13 147.243 191.025 146.207 190.226C144.885 189.055 141.989 186.431 140.152 186.936C140.294 188.147 140.405 189.529 140.496 191.104C140.677 194.131 139.174 198.793 137.196 203.536C137.554 204.637 138.111 205.663 138.841 206.563C139.361 207.246 140.059 207.773 140.859 208.087C141.267 208.231 141.706 208.267 142.132 208.191C142.558 208.115 142.958 207.929 143.291 207.653C144.814 206.2 143.351 203.293 144.693 201.669C145.224 201.2 145.783 200.765 146.368 200.367Z" fill="#2D2F40"/>
<path d="M140.707 198.46C138.819 197.586 137.201 196.22 136.025 194.504C136.025 194.504 134.511 196.815 135.672 198.47C136.832 200.125 139.113 201.275 139.94 201.033C140.768 200.791 141.08 199.015 140.707 198.46Z" fill="#CB7D75"/>
<path d="M137.831 180.286C137.831 180.286 135.167 184.837 136.307 187.965C137.448 191.093 143.169 196.038 144.652 195.967C146.136 195.896 146.479 193.949 146.045 192.748C145.611 191.547 140.909 187.359 140.394 185.008C139.87 183.276 138.998 181.669 137.831 180.286Z" fill="#CB7D75"/>
<path d="M143.765 195.705C141.605 194.696 137.266 190.659 136.307 187.965C136.307 187.965 134.653 192.314 136.025 194.504C137.397 196.694 141.181 199.469 142.523 198.54C142.936 198.198 143.264 197.765 143.481 197.274C143.698 196.784 143.799 196.25 143.775 195.715L143.765 195.705Z" fill="#CB7D75"/>
<path d="M143.825 195.715C141.665 194.706 137.326 190.669 136.368 187.975C136.226 188.355 136.105 188.742 136.004 189.135C137.759 192.124 140.245 194.618 143.23 196.381C143.239 197.088 143.058 197.785 142.705 198.399C143.069 198.055 143.357 197.638 143.55 197.176C143.742 196.713 143.836 196.215 143.825 195.715Z" fill="#B16C6D"/>
<path d="M140.798 199.237C140.836 199.307 140.866 199.382 140.889 199.459C140.959 199.117 140.913 198.762 140.757 198.45C138.869 197.576 137.252 196.21 136.075 194.494C135.964 194.676 135.862 194.865 135.772 195.059C137.057 196.864 138.789 198.304 140.798 199.237Z" fill="#B16C6D"/>
<path d="M200.556 67.0955C200.556 67.0955 176.005 75.5517 171.01 82.3934C166.015 89.235 163.946 112.091 160.748 121.324C160.748 121.324 165.551 127.914 180.647 127.651C180.647 127.651 184.956 115.542 186.802 115.29C188.649 115.038 190.677 178.712 190.677 178.712C190.677 178.712 223.533 182.243 242.615 178.712C242.615 178.712 244.381 103.362 246.501 103.029C248.62 102.696 261.889 114.987 261.889 114.987C261.889 114.987 272.818 111.395 279.044 101.97C276.605 100.262 274.301 98.3695 272.152 96.3088C269.235 93.3925 256.884 77.3782 252.434 76.2076C247.984 75.0371 226.753 66.2377 224.078 65.9249C221.404 65.6121 200.556 67.0955 200.556 67.0955Z" fill="#32854D"/>
<path d="M183.291 120.971C181.245 120.834 179.217 120.496 177.237 119.962C175.941 119.563 174.673 119.078 173.442 118.509C169.766 116.864 166.238 114.905 162.897 112.656C162.675 113.746 162.443 114.805 162.221 115.804C165.684 118.173 169.351 120.226 173.18 121.94C174.412 122.507 175.68 122.996 176.974 123.403C178.585 123.855 180.233 124.163 181.899 124.321C182.322 123.262 182.797 122.101 183.291 120.971Z" fill="#79BA2A"/>
<path d="M250.023 92.4236C250.685 88.2272 252.518 84.3028 255.31 81.1015C255.851 80.5364 256.431 80.0103 257.046 79.5273C255.179 77.7715 253.534 76.5 252.404 76.2074C251.546 75.9854 250.093 75.491 248.267 74.825C245.936 76.659 244.279 79.2141 243.554 82.0904C243.172 84.0847 243.016 86.1158 243.09 88.145C243.09 93.0156 243.127 97.8962 243.201 102.787C243.113 103.855 243.341 104.925 243.857 105.865C244.284 106.48 244.924 106.915 245.653 107.086C245.926 104.583 246.208 103.11 246.501 103.049C247.016 102.979 248.196 103.655 249.68 104.704C249.319 100.611 249.434 96.4901 250.023 92.4236Z" fill="#409A97"/>
<path d="M191.858 114.442C192.213 113.285 192.213 112.048 191.858 110.89C191.316 108.338 190.642 105.815 189.84 103.332C188.535 99.1005 187.112 94.9162 185.571 90.7789C183.987 86.5104 182.231 82.2318 179.406 78.6697C178.945 78.047 178.378 77.5107 177.731 77.0854C176.105 78.0102 174.553 79.0594 173.089 80.2237C173.108 80.3505 173.139 80.4755 173.18 80.5971C174.37 83.4932 175.924 86.1875 176.994 89.1542C180.556 98.9727 182.675 109.467 181.878 119.891C181.69 121.451 181.643 123.025 181.737 124.594C183.15 120.991 185.501 115.461 186.782 115.29C187.045 115.29 187.307 116.541 187.579 118.771C188.215 118.146 188.861 117.53 189.598 116.965C190.537 116.312 191.311 115.448 191.858 114.442Z" fill="#409A97"/>
<path d="M213.998 76.4094C213.998 77.1158 215.824 147.409 215.198 180.215H216.389C217.025 147.369 215.219 77.0552 215.198 76.3489L213.998 76.4094Z" fill="#337E7C"/>
<path d="M223.241 69.9509C221.881 64.5085 221.59 58.8541 222.383 53.3008H204.542C205.335 58.8541 205.044 64.5085 203.685 69.9509C203.685 69.9509 209.8 78.8208 213.463 78.6291C217.126 78.4374 223.241 69.9509 223.241 69.9509Z" fill="#CB7D75"/>
<path d="M204.542 53.2607C204.986 56.2937 205.098 59.3661 204.875 62.4233C207.35 60.9618 210.041 59.9026 212.847 59.285C214.391 58.952 215.955 58.7603 217.53 58.5787C219.104 58.397 220.496 58.2053 221.98 58.0338C222.011 56.4353 222.149 54.8408 222.393 53.2607H204.542Z" fill="#B56C75"/>
<path d="M204.583 61.8782C205.508 63.1037 206.689 64.1128 208.044 64.8348C208.417 65.0064 208.801 65.1577 209.174 65.3091L211.142 66.0962C210.028 68.8694 208.485 71.4505 206.571 73.7451C203.809 72.326 201.658 69.952 200.516 67.0649C201.508 65.0792 202.891 63.3148 204.583 61.8782Z" fill="#79BA2A"/>
<path d="M222.353 61.8782C221.428 63.1037 220.247 64.1128 218.892 64.8348C218.519 65.0064 218.135 65.1577 217.752 65.3091L215.794 66.0962C216.908 68.8694 218.45 71.4505 220.365 73.7451C223.124 72.323 225.275 69.95 226.42 67.0649C225.425 65.0813 224.042 63.3175 222.353 61.8782Z" fill="#79BA2A"/>
<path d="M193.362 69.7998C193.362 69.7998 198.054 90.4661 211.142 102.646C211.142 102.646 213.079 171.84 211.142 185.583C211.142 185.583 191.525 186.764 186.863 182.092C186.863 182.092 188.881 121.011 186.863 116.016C184.845 111.021 177.66 82.474 173.604 79.8504C173.604 79.8504 184.441 70.8795 193.362 69.7998Z" fill="#FFAD35"/>
<path d="M221.081 101.778C233.12 89.6689 236.813 69.7998 236.813 69.7998L252.403 76.2076C252.403 76.2076 246.026 102.777 245.632 107.187C245.239 111.597 245.289 169.7 246.097 179.196C246.097 179.196 248.115 184.685 245.299 184.685H221.081V101.778Z" fill="#EEA93C"/>
<path d="M211.939 144.795C211.889 139.588 211.808 134.402 211.727 129.528C209.164 129.77 206.752 129.871 204.512 129.891C204.764 115.219 204.754 101.636 204.169 94.3911C201.004 89.6573 198.387 84.5793 196.369 79.2546C196.228 87.4687 195.844 107.943 195.087 129.467C192.602 129.204 190.135 128.789 187.701 128.226C187.761 132.696 187.761 137.994 187.701 143.504C189.939 144.029 192.207 144.42 194.492 144.674C193.826 160.184 192.948 174.866 191.828 184.443C195.443 185.225 199.128 185.645 202.827 185.694C203.099 178.984 203.735 162.606 204.179 145.199C206.581 145.169 209.164 145.058 211.939 144.795Z" fill="#F4C159"/>
<path d="M245.441 146.269C245.441 140.467 245.391 134.584 245.441 129.195C243.47 129.646 241.486 130.009 239.488 130.285C239.649 104.049 240.81 80.5265 241.304 71.6263L236.854 69.7998C235.317 77.0395 232.769 84.0271 229.286 90.5569C229.114 100.153 228.751 115.35 228.347 130.921C225.932 130.88 223.521 130.719 221.122 130.436V148.075C223.364 148.374 225.621 148.543 227.883 148.58C227.469 164.15 227.076 178.066 226.874 184.665H241.143C240.133 173.131 239.7 160.376 239.528 147.652C241.522 147.296 243.496 146.835 245.441 146.269Z" fill="#F4C159"/>
<path d="M257.257 110.88C258.115 111.627 258.902 112.333 259.578 112.898C267.268 109.75 274.583 103.403 277.409 100.789C276.713 100.254 275.845 99.5884 274.937 98.8315C270.355 102.535 261.617 108.145 257.257 110.88Z" fill="#79BA2A"/>
<path d="M162.12 122.676C161.675 127.287 160.335 131.767 158.174 135.865C154.754 141.919 145.308 161.425 143.845 166.804C142.382 172.182 144.703 184.352 145.419 185.714C146.136 187.076 148.568 187.006 149.345 186.431C150.122 185.855 149.426 176.622 149.345 175.472C149.353 174.642 149.557 173.826 149.94 173.09C155.238 168.479 171.474 145.068 173.603 143.009C175.339 141.344 177.811 131.324 178.649 127.631C169.285 127.409 164.29 124.442 162.12 122.676Z" fill="#CB7D75"/>
<path d="M162.12 122.677C162.043 123.573 161.922 124.466 161.756 125.351C163.956 125.938 166.077 126.788 168.073 127.883C171.328 129.828 174.26 132.269 176.762 135.119C177.589 132.233 178.306 129.296 178.689 127.631C169.284 127.409 164.289 124.442 162.12 122.677Z" fill="#B56C75"/>
<path d="M229.266 29.0828C229.266 29.0828 229.266 45.9548 225.088 51.4443C220.91 56.9338 218.266 57.3475 216.4 57.3475H210.9C209.023 57.3475 206.389 56.9338 202.212 51.4443C198.034 45.9548 198.024 29.0828 198.024 29.0828V24.2189L200.042 22.5943C203.921 19.5633 208.702 17.9167 213.625 17.9167C218.547 17.9167 223.328 19.5633 227.207 22.5943L229.225 24.2189L229.266 29.0828Z" fill="#CB7D75"/>
<path d="M227.762 44.5318C225.27 42.6347 218.902 38.0837 214.371 37.6296C209.649 37.1553 202.091 42.6751 199.568 44.6933C199.982 47.1027 200.882 49.4028 202.212 51.4542C206.389 56.9437 209.023 57.3574 210.9 57.3574H216.4C218.196 57.3574 220.729 56.9538 224.654 52.0092L226.178 49.5874C226.881 47.962 227.412 46.2676 227.762 44.5318Z" fill="#E4E7FF"/>
<path d="M210.98 46.6814C210.809 46.1264 207.247 46.6814 205.45 47.196C204.825 47.3574 201.333 48.2051 200.99 49.305C201.101 49.5472 201.212 49.7894 201.333 50.0215C202.342 50.3444 205.269 48.2152 205.975 48.0033C207.63 47.418 210.98 47.8115 210.98 46.6814Z" fill="#C4C7DB"/>
<path d="M224.351 52.3627L223.594 52.3022C221.929 52.1306 220.244 52.0196 218.549 51.9792C217.741 51.9792 216.944 51.9792 216.137 51.9792C215.572 51.9792 215.41 52.837 219.215 52.8672C219.981 52.9942 220.731 53.2005 221.455 53.4828C222.026 53.6042 222.607 53.6751 223.19 53.6947C223.544 53.2911 223.957 52.8471 224.351 52.3627Z" fill="#C4C7DB"/>
<path d="M218.499 43.5227C219.231 43.6152 219.926 43.8969 220.517 44.34C219.882 44.5254 219.218 44.5904 218.559 44.5318C216.712 44.4611 214.856 44.2896 213.009 44.1281C212.605 44.1281 211.758 43.7749 212.192 43.2401C212.464 42.9172 213.342 43.0484 213.705 43.0585C215.313 43.087 216.916 43.2423 218.499 43.5227Z" fill="#C4C7DB"/>
<path d="M198.094 31.9585C196.873 30.9494 194.915 29.799 193.866 31.2521C192.443 33.2097 194.683 39.3854 198.78 40.112C198.366 37.0342 198.185 34.0473 198.094 31.9585Z" fill="#B26675"/>
<path d="M198.316 33.5629C197.367 32.8162 195.874 31.908 195.056 33.018C193.967 34.5216 195.682 39.2643 198.83 39.8294C198.558 37.458 198.417 35.1674 198.316 33.5629Z" fill="#915675"/>
<path d="M229.174 31.9585C230.395 30.9494 232.353 29.799 233.403 31.2521C234.825 33.2097 232.595 39.3854 228.488 40.112C228.902 37.0342 229.084 34.0473 229.174 31.9585Z" fill="#B26675"/>
<path d="M229.023 33.7449C229.982 32.978 231.505 32.0496 232.333 33.1899C233.443 34.7136 231.697 39.5472 228.488 40.1123C228.811 37.7106 228.952 35.3796 229.023 33.7449Z" fill="#915675"/>
<path d="M196.298 26.1463C196.298 26.1463 197.237 35.7226 198.972 35.6621C200.708 35.6015 202.787 23.0787 202.333 22.6447C201.879 22.2108 196.298 26.1463 196.298 26.1463Z" fill="#453034"/>
<path d="M231.001 26.1463C231.001 26.1463 230.052 35.7226 228.327 35.6621C226.601 35.6015 224.512 23.0787 224.966 22.6447C225.42 22.2108 231.001 26.1463 231.001 26.1463Z" fill="#453034"/>
<path d="M213.645 2.63428C197.217 3.58283 197.408 18.2248 197.408 18.2248H229.891C229.891 18.2248 230.073 3.58283 213.645 2.63428Z" fill="#FFAD35"/>
<path d="M219.628 18.2248C218.807 12.7612 216.984 7.49623 214.25 2.69482L213.645 2.63428H213.15C212.01 4.2791 209.114 9.12276 207.025 18.1743L219.628 18.2248Z" fill="#FFCC35"/>
<path d="M229.265 17.4779C229.265 17.4779 237.338 23.8755 234.876 26.6909C233.443 28.3458 225.309 22.9573 213.685 23.0683C202.03 22.9573 193.886 28.3458 192.494 26.6909C190.072 23.8755 198.104 17.4779 198.104 17.4779C208.328 14.564 219.162 14.564 229.386 17.4779H229.265Z" fill="#F4C159"/>
<path d="M234.876 25.0467C233.443 26.7016 225.31 21.3231 213.685 21.424C202.03 21.3231 193.886 26.7016 192.494 25.0467C192.37 24.8952 192.271 24.7249 192.201 24.5421C192.058 24.8965 192.01 25.282 192.061 25.6606C192.113 26.0393 192.262 26.398 192.494 26.7016C193.927 28.3565 202.07 22.9679 213.685 23.0789C225.35 22.9679 233.483 28.3565 234.876 26.7016C235.112 26.3999 235.264 26.0415 235.317 25.6624C235.37 25.2833 235.322 24.8969 235.179 24.5421C235.109 24.7272 235.007 24.8982 234.876 25.0467Z" fill="#FFB54D"/>
<path d="M215.128 1.39314C215.146 1.68972 215.075 1.98493 214.923 2.24051C214.772 2.49609 214.547 2.70028 214.278 2.8266C214.009 2.95292 213.708 2.99557 213.415 2.949C213.122 2.90244 212.849 2.76881 212.632 2.56544C212.416 2.36207 212.265 2.09833 212.2 1.80839C212.135 1.51845 212.159 1.21567 212.268 0.939291C212.377 0.662911 212.566 0.425665 212.812 0.258295C213.057 0.0909254 213.348 0.00114708 213.645 0.000589693C214.026 -0.0103013 214.396 0.130034 214.674 0.390949C214.951 0.651864 215.115 1.01216 215.128 1.39314Z" fill="#AD8035"/>
<path d="M206.359 35.652C206.944 35.652 207.418 34.7981 207.418 33.7448C207.418 32.6915 206.944 31.8376 206.359 31.8376C205.774 31.8376 205.299 32.6915 205.299 33.7448C205.299 34.7981 205.774 35.652 206.359 35.652Z" fill="#453034"/>
<path d="M220.96 35.652C221.546 35.652 222.02 34.7981 222.02 33.7448C222.02 32.6915 221.546 31.8376 220.96 31.8376C220.375 31.8376 219.901 32.6915 219.901 33.7448C219.901 34.7981 220.375 35.652 220.96 35.652Z" fill="#453034"/>
<path d="M202.908 30.778C202.796 30.7751 202.689 30.7362 202.602 30.6671C202.514 30.5979 202.452 30.5023 202.423 30.3946C202.376 30.2565 202.383 30.1056 202.443 29.9726C202.503 29.8396 202.612 29.7343 202.746 29.6781C204.74 28.9631 206.897 28.8335 208.962 29.3047C209.099 29.3511 209.213 29.448 209.28 29.5756C209.348 29.7032 209.364 29.8518 209.326 29.9909C209.314 30.0602 209.288 30.1263 209.249 30.1851C209.211 30.244 209.161 30.2943 209.102 30.3331C209.044 30.3719 208.978 30.3982 208.908 30.4105C208.839 30.4228 208.768 30.4208 208.7 30.4046C206.829 29.9814 204.875 30.1004 203.069 30.7477L202.908 30.778Z" fill="#453034"/>
<path d="M224.664 30.7777C224.607 30.7873 224.549 30.7873 224.492 30.7777C222.61 30.1284 220.585 30.0097 218.64 30.4346C218.57 30.4509 218.498 30.4531 218.427 30.441C218.357 30.4289 218.29 30.4028 218.229 30.3642C218.169 30.3257 218.117 30.2754 218.077 30.2164C218.036 30.1575 218.008 30.091 217.994 30.0209C217.959 29.8792 217.979 29.7295 218.05 29.6021C218.121 29.4747 218.238 29.3791 218.377 29.3347C220.52 28.8606 222.752 28.9899 224.825 29.7081C224.964 29.7605 225.077 29.8642 225.141 29.9976C225.204 30.131 225.214 30.2839 225.169 30.4246C225.13 30.5275 225.061 30.6162 224.971 30.6793C224.881 30.7423 224.774 30.7766 224.664 30.7777Z" fill="#453034"/>
<path d="M289.135 116.874C285.563 112.341 281.664 108.074 277.47 104.109C277.47 104.109 271.062 111.667 263.988 114.14C266.811 117.46 269.992 120.459 273.474 123.08C273.474 123.08 264.089 135.785 259.922 140.992C255.754 146.199 251.324 147.379 249.891 147.248C248.398 147.006 246.922 146.669 245.471 146.239C245.471 146.239 245.33 151.123 243.776 152.162C242.222 153.202 231.546 161.305 229.497 162.546C227.449 163.787 228.095 166.431 229.497 166.744C229.497 166.744 226.854 168.651 224.22 170.175C222.585 171.113 223.867 173.697 225.723 173.606C227.58 173.515 230.426 171.305 230.426 171.305C230.207 171.613 230.074 171.972 230.038 172.348C230.003 172.723 230.067 173.101 230.224 173.444C230.576 173.9 231.066 174.23 231.621 174.383C232.176 174.536 232.766 174.504 233.302 174.292C234.606 173.63 235.834 172.828 236.965 171.9C236.965 171.9 236.783 173.454 237.53 173.868C238.277 174.282 241.264 173.979 243.716 172.153C246.168 170.326 252.232 166.774 254.574 163.525C256.915 160.276 258.358 156.562 264.19 152.657C270.023 148.752 289.629 135.311 291.668 130.033C293.706 124.755 292.707 121.415 289.135 116.874Z" fill="#CB7D75"/>
<path d="M229.457 167.147C229.52 167.163 229.586 167.163 229.649 167.147C233.474 164.845 237.178 162.349 240.749 159.67C240.788 159.639 240.821 159.601 240.845 159.558C240.87 159.515 240.885 159.468 240.891 159.418C240.898 159.369 240.894 159.319 240.881 159.272C240.868 159.224 240.845 159.179 240.815 159.14C240.784 159.101 240.746 159.068 240.703 159.044C240.66 159.019 240.612 159.004 240.563 158.997C240.514 158.991 240.464 158.995 240.416 159.008C240.369 159.021 240.324 159.044 240.285 159.074C236.774 161.719 233.13 164.181 229.366 166.451H228.832C229.005 166.631 229.225 166.761 229.467 166.824L228.932 167.198L229.457 167.147Z" fill="#9C4860"/>
<path d="M245.179 165.815C245.144 165.779 245.102 165.751 245.056 165.732C245.011 165.712 244.961 165.702 244.911 165.702C244.861 165.702 244.812 165.712 244.766 165.732C244.72 165.751 244.679 165.779 244.644 165.815C242.187 167.997 239.536 169.95 236.722 171.648C236.681 171.68 236.643 171.717 236.612 171.759L235.986 172.687C236.531 172.283 236.924 171.971 236.924 171.971C236.909 172.199 236.909 172.428 236.924 172.657L237.197 172.253C240.036 170.534 242.711 168.558 245.189 166.35C245.255 166.276 245.29 166.18 245.289 166.081C245.287 165.981 245.247 165.887 245.179 165.815Z" fill="#9C4860"/>
<path d="M230.386 171.335C230.192 171.644 230.059 171.986 229.992 172.344L230.638 171.628C231.294 171.204 239.427 165.856 243.756 162.263C243.823 162.191 243.861 162.095 243.861 161.996C243.861 161.897 243.823 161.801 243.756 161.729C243.693 161.652 243.602 161.604 243.504 161.595C243.406 161.586 243.308 161.615 243.231 161.678C238.812 165.382 230.275 170.972 230.184 171.022C230.155 171.041 230.131 171.065 230.113 171.093L229.104 172.254C229.831 171.759 230.386 171.335 230.386 171.335Z" fill="#9C4860"/>
<path d="M255.525 144.124L254.141 145.121C253.698 145.44 253.598 146.058 253.917 146.501L260.448 155.564C260.768 156.007 261.386 156.107 261.829 155.788L263.212 154.791C263.655 154.471 263.756 153.853 263.436 153.41L256.905 144.348C256.586 143.905 255.968 143.804 255.525 144.124Z" fill="#533752"/>
<path d="M270.669 120.911C271.07 119.01 271.579 117.134 272.192 115.29C273.115 112.669 274.428 110.203 276.087 107.974C276.845 106.977 277.704 106.06 278.65 105.24C278.247 104.846 277.833 104.452 277.44 104.109C277.44 104.109 271.032 111.667 263.958 114.14C266.04 116.545 268.282 118.807 270.669 120.911Z" fill="#B56C75"/>
</svg>
